<?xml version="1.0" encoding="UTF-8"?>
<svg width="545px" height="116px" viewBox="0 0 545 116" version="1.1" xmlns="http://www.w3.org/2000/svg" xmlns:xlink="http://www.w3.org/1999/xlink">
    <!-- Generator: Sketch 45.2 (43514) - http://www.bohemiancoding.com/sketch -->
    <title>haeckels-logo-(1)</title>
    <desc>Created with Sketch.</desc>
    <defs></defs>
    <g id="Page-1" stroke="none" stroke-width="1" fill="none" fill-rule="evenodd">
        <g id="haeckels-logo-(1)" fill-rule="nonzero" fill="#ffffff">
            <polygon id="Shape" points="0.599 7.93 11.398 7.93 11.398 53.98 69.299 53.98 69.299 7.93 80.099 7.93 80.099 114.13 69.299 114.13 69.299 63.88 11.398 63.88 11.398 114.13 0.599 114.13"></polygon>
            <path d="M208.796,76.93 L208.796,79.48 C208.796,80.281 208.745,81.031 208.647,81.73 L153.147,81.73 C153.245,85.232 153.921,88.555 155.171,91.706 C156.421,94.855 158.145,97.581 160.346,99.881 C162.546,102.183 165.12,104.006 168.071,105.356 C171.02,106.707 174.196,107.381 177.596,107.381 C182.696,107.381 187.069,106.156 190.721,103.706 C194.37,101.257 197.145,98.433 199.046,95.23 L206.397,101.081 C202.395,106.382 197.997,110.182 193.196,112.48 C188.397,114.779 183.196,115.93 177.596,115.93 C170.997,115.93 165.27,114.479 160.421,111.58 C155.569,108.681 151.995,104.68 149.696,99.58 C148.296,102.78 146.569,105.43 144.522,107.528 C142.471,109.63 140.171,111.305 137.622,112.554 C135.071,113.806 132.346,114.677 129.446,115.179 C126.546,115.678 123.546,115.929 120.446,115.929 C117.446,115.929 114.421,115.554 111.371,114.804 C108.32,114.054 105.596,112.88 103.196,111.278 C100.797,109.681 98.846,107.581 97.346,104.979 C95.846,102.38 95.096,99.181 95.096,95.379 C95.096,90.38 96.496,86.431 99.297,83.527 C102.095,80.63 105.77,78.454 110.321,77.004 C114.871,75.556 120.071,74.63 125.921,74.229 C131.772,73.831 137.696,73.629 143.696,73.629 L143.696,71.379 C143.696,65.279 142.219,60.305 139.272,56.454 C136.321,52.606 131.796,50.679 125.696,50.679 C121.497,50.679 117.522,51.429 113.772,52.929 C110.022,54.429 106.797,56.431 104.096,58.929 L98.246,52.329 C101.246,49.43 105.32,47.004 110.471,45.054 C115.621,43.104 121.196,42.129 127.196,42.129 C132.796,42.129 137.622,43.403 141.671,45.954 C145.721,48.504 148.594,52.13 150.296,56.829 C153.094,52.329 156.821,48.755 161.471,46.104 C166.122,43.455 171.245,42.129 176.846,42.129 C182.046,42.129 186.645,43.055 190.647,44.903 C194.645,46.755 197.997,49.254 200.696,52.403 C203.397,55.554 205.421,59.229 206.772,63.429 C208.122,67.63 208.796,72.13 208.796,76.93 L208.796,76.93 Z M140.696,81.73 C136.196,81.73 131.821,81.857 127.571,82.105 C123.319,82.356 119.57,82.93 116.321,83.831 C113.071,84.73 110.471,86.081 108.522,87.881 C106.571,89.681 105.596,92.132 105.596,95.231 C105.596,97.631 106.047,99.632 106.946,101.231 C107.846,102.832 109.07,104.107 110.621,105.056 C112.171,106.007 113.945,106.683 115.946,107.081 C117.946,107.481 120.046,107.681 122.247,107.681 C129.446,107.681 134.821,105.782 138.372,101.981 C141.921,98.182 143.696,93.131 143.696,86.832 L143.696,81.731 L140.696,81.731 L140.696,81.73 Z M198.446,73.63 C198.446,66.932 196.546,61.431 192.747,57.13 C188.944,52.831 183.645,50.68 176.846,50.68 C173.745,50.68 170.821,51.306 168.071,52.555 C165.319,53.807 162.897,55.506 160.796,57.654 C158.696,59.807 156.995,62.256 155.696,65.005 C154.395,67.756 153.694,70.63 153.596,73.63 L198.446,73.63 Z" id="Shape"></path>
            <path d="M273.746,59.98 C272.045,57.28 269.569,55.056 266.321,53.305 C263.07,51.557 259.546,50.68 255.746,50.68 C251.644,50.68 247.946,51.407 244.646,52.855 C241.347,54.306 238.519,56.305 236.171,58.855 C233.82,61.405 232.02,64.405 230.771,67.855 C229.519,71.305 228.896,75.032 228.896,79.03 C228.896,83.031 229.519,86.732 230.771,90.13 C232.02,93.531 233.795,96.505 236.097,99.056 C238.395,101.606 241.196,103.608 244.496,105.056 C247.796,106.506 251.495,107.231 255.597,107.231 C260.097,107.231 263.895,106.381 266.996,104.681 C270.095,102.982 272.644,100.781 274.646,98.081 L282.295,103.78 C279.295,107.481 275.62,110.432 271.271,112.63 C266.92,114.829 261.694,115.931 255.597,115.931 C249.896,115.931 244.745,115.004 240.146,113.156 C235.546,111.307 231.62,108.731 228.371,105.431 C225.12,102.13 222.597,98.231 220.796,93.731 C218.996,89.231 218.097,84.333 218.097,79.031 C218.097,73.732 218.996,68.832 220.796,64.332 C222.597,59.832 225.12,55.931 228.371,52.631 C231.62,49.332 235.546,46.757 240.146,44.906 C244.745,43.057 249.896,42.131 255.597,42.131 C260.296,42.131 265.069,43.158 269.921,45.207 C274.771,47.257 278.696,50.283 281.696,54.281 L273.746,59.98 Z" id="Shape"></path>
            <polygon id="Shape" points="301.196 75.581 301.646 75.581 334.046 43.93 348.746 43.93 313.347 76.03 352.347 114.13 337.347 114.13 301.646 77.229 301.196 77.229 301.196 114.13 290.996 114.13 290.996 0.729 301.196 0.729"></polygon>
            <path d="M420.897,76.93 L420.897,79.18 C420.897,79.982 420.845,80.83 420.747,81.73 L362.547,81.73 C362.646,85.232 363.347,88.531 364.648,91.63 C365.946,94.731 367.746,97.431 370.047,99.73 C372.347,102.031 375.046,103.855 378.148,105.206 C381.246,106.556 384.597,107.23 388.198,107.23 C393.497,107.23 398.072,106.006 401.923,103.555 C405.772,101.106 408.696,98.281 410.698,95.08 L418.347,101.08 C414.148,106.381 409.521,110.181 404.472,112.479 C399.421,114.778 393.995,115.929 388.198,115.929 C382.997,115.929 378.172,115.003 373.722,113.153 C369.272,111.305 365.447,108.729 362.247,105.429 C359.046,102.129 356.521,98.229 354.672,93.729 C352.82,89.229 351.898,84.331 351.898,79.028 C351.898,73.73 352.797,68.83 354.597,64.33 C356.398,59.83 358.896,55.93 362.097,52.63 C365.296,49.33 369.046,46.756 373.347,44.904 C377.646,43.056 382.296,42.13 387.297,42.13 C392.796,42.13 397.648,43.056 401.847,44.904 C406.047,46.756 409.546,49.255 412.347,52.404 C415.146,55.555 417.272,59.23 418.722,63.43 C420.171,67.63 420.897,72.13 420.897,76.93 L420.897,76.93 Z M410.547,73.63 C410.247,67.028 408.121,61.555 404.172,57.205 C400.221,52.855 394.596,50.68 387.297,50.68 C383.897,50.68 380.746,51.306 377.847,52.555 C374.946,53.807 372.396,55.506 370.198,57.654 C367.997,59.807 366.246,62.256 364.948,65.005 C363.647,67.756 362.897,70.63 362.698,73.63 L410.547,73.63 Z" id="Shape"></path>
            <rect id="Rectangle-path" x="435.596" y="0.73" width="10.2" height="113.399"></rect>
            <path d="M502.945,60.581 C501.445,57.682 499.17,55.308 496.121,53.456 C493.069,51.606 489.596,50.681 485.695,50.681 C483.895,50.681 482.095,50.882 480.296,51.28 C478.496,51.682 476.895,52.331 475.496,53.23 C474.094,54.131 472.969,55.281 472.121,56.681 C471.269,58.082 470.846,59.732 470.846,61.631 C470.846,64.931 472.196,67.457 474.896,69.206 C477.596,70.956 481.845,72.431 487.646,73.631 C495.946,75.332 502.07,77.808 506.021,81.056 C509.97,84.307 511.946,88.683 511.946,94.181 C511.946,98.182 511.171,101.557 509.622,104.306 C508.07,107.058 506.045,109.308 503.547,111.056 C501.046,112.807 498.222,114.056 495.071,114.806 C491.922,115.556 488.746,115.931 485.547,115.931 C480.245,115.931 475.096,114.829 470.097,112.631 C465.095,110.433 460.996,106.982 457.797,102.28 L465.897,96.28 C467.697,99.382 470.345,101.979 473.847,104.081 C477.346,106.181 481.197,107.229 485.397,107.229 C487.595,107.229 489.696,107.031 491.697,106.63 C493.697,106.231 495.447,105.53 496.947,104.529 C498.447,103.531 499.647,102.256 500.548,100.705 C501.447,99.155 501.898,97.23 501.898,94.93 C501.898,91.231 500.122,88.456 496.573,86.604 C493.022,84.756 487.897,83.031 481.198,81.43 C479.098,80.931 476.872,80.305 474.523,79.555 C472.172,78.805 469.998,77.705 467.999,76.255 C465.997,74.807 464.347,72.98 463.049,70.779 C461.748,68.581 461.099,65.83 461.099,62.529 C461.099,58.929 461.797,55.854 463.199,53.304 C464.598,50.754 466.473,48.653 468.824,47.004 C471.173,45.353 473.849,44.13 476.849,43.329 C479.849,42.529 482.948,42.129 486.149,42.129 C491.047,42.129 495.798,43.23 500.399,45.429 C504.998,47.63 508.448,50.73 510.75,54.728 L502.945,60.581 Z" id="Shape"></path>
            <path d="M522.955,52.836 C522.955,51.333 523.243,49.916 523.819,48.588 C524.395,47.261 525.178,46.109 526.171,45.132 C527.162,44.157 528.323,43.38 529.651,42.804 C530.978,42.228 532.394,41.941 533.899,41.941 C535.402,41.941 536.818,42.228 538.147,42.804 C539.474,43.38 540.634,44.157 541.626,45.132 C542.617,46.109 543.402,47.261 543.979,48.588 C544.554,49.916 544.841,51.333 544.841,52.836 C544.841,54.341 544.554,55.749 543.979,57.06 C543.403,58.373 542.618,59.517 541.626,60.493 C540.634,61.47 539.474,62.236 538.147,62.798 C536.818,63.358 535.402,63.638 533.899,63.638 C532.394,63.638 530.978,63.358 529.651,62.798 C528.323,62.236 527.162,61.47 526.171,60.493 C525.179,59.517 524.396,58.374 523.819,57.06 C523.243,55.75 522.955,54.341 522.955,52.836 L522.955,52.836 Z M524.683,52.836 C524.683,54.084 524.923,55.269 525.404,56.388 C525.883,57.509 526.539,58.493 527.372,59.34 C528.204,60.189 529.18,60.852 530.299,61.332 C531.42,61.811 532.62,62.053 533.901,62.053 C535.18,62.053 536.38,61.812 537.501,61.332 C538.621,60.852 539.597,60.188 540.428,59.34 C541.26,58.493 541.917,57.509 542.398,56.388 C542.877,55.269 543.118,54.084 543.118,52.836 C543.118,51.557 542.878,50.357 542.398,49.237 C541.918,48.117 541.26,47.141 540.428,46.308 C539.597,45.477 538.621,44.821 537.501,44.34 C536.381,43.861 535.181,43.621 533.901,43.621 C532.621,43.621 531.421,43.861 530.299,44.34 C529.18,44.821 528.204,45.477 527.372,46.308 C526.539,47.141 525.884,48.117 525.404,49.237 C524.923,50.357 524.683,51.557 524.683,52.836 L524.683,52.836 Z M529.627,46.644 L533.947,46.644 C534.523,46.644 535.083,46.709 535.627,46.836 C536.171,46.964 536.659,47.172 537.09,47.46 C537.524,47.749 537.866,48.117 538.123,48.565 C538.379,49.013 538.508,49.573 538.508,50.245 C538.508,51.141 538.251,51.869 537.739,52.428 C537.226,52.989 536.539,53.365 535.674,53.556 L538.987,58.932 L536.299,58.932 L533.419,53.796 L531.835,53.796 L531.835,58.932 L529.627,58.932 L529.627,46.644 Z M533.611,52.02 C534.251,52.02 534.859,51.901 535.434,51.661 C536.01,51.42 536.298,50.933 536.298,50.197 C536.298,49.525 536.034,49.077 535.507,48.852 C534.979,48.629 534.425,48.516 533.85,48.516 L531.834,48.516 L531.834,52.02 L533.611,52.02 Z" id="Shape"></path>
        </g>
    </g>
</svg>
