<svg width="205" height="44" viewBox="0 0 205 44" fill="none" xmlns="http://www.w3.org/2000/svg">
<path d="M0 2.70044H4.04975V19.9697H25.7633V2.70044H29.8134V42.5267H25.7633V23.6823H4.04975V42.5267H0V2.70044Z" fill="#CFCFCF"/>
<path d="M78.0763 28.5762V29.5325C78.0763 29.8328 78.0572 30.1141 78.0205 30.3762H57.2073C57.2441 31.6895 57.4976 32.9357 57.9663 34.1173C58.4351 35.2983 59.0816 36.3205 59.907 37.1831C60.732 38.0463 61.6973 38.73 62.804 39.2363C63.9099 39.7429 65.1009 39.9957 66.376 39.9957C68.2885 39.9957 69.9284 39.5363 71.298 38.6175C72.6664 37.6991 73.7071 36.64 74.42 35.4389L77.1767 37.6331C75.6759 39.621 74.0266 41.0461 72.2261 41.9078C70.4265 42.77 68.476 43.2016 66.376 43.2016C63.9013 43.2016 61.7536 42.6575 59.9351 41.5703C58.1156 40.4832 56.7753 38.9827 55.9131 37.0702C55.3881 38.2702 54.7405 39.264 53.9728 40.0508C53.2037 40.8391 52.3412 41.4672 51.3852 41.9356C50.4286 42.4051 49.4067 42.7317 48.3192 42.92C47.2316 43.1071 46.1066 43.2013 44.944 43.2013C43.819 43.2013 42.6846 43.0606 41.5408 42.7794C40.3967 42.4981 39.3751 42.0578 38.4751 41.4571C37.5754 40.8582 36.8438 40.0707 36.2813 39.0949C35.7188 38.1202 35.4375 36.9206 35.4375 35.4948C35.4375 33.6201 35.9625 32.1392 37.0129 31.0501C38.0622 29.9637 39.4404 29.1477 41.1471 28.6039C42.8534 28.0609 44.8034 27.7136 46.9972 27.5633C49.1914 27.414 51.413 27.3383 53.6631 27.3383V26.4945C53.6631 24.2069 53.1092 22.3416 52.004 20.8974C50.8974 19.4544 49.2004 18.7317 46.9129 18.7317C45.3382 18.7317 43.8475 19.013 42.4412 19.5755C41.0349 20.138 39.8255 20.8888 38.8126 21.8256L36.6188 19.3505C37.7438 18.2633 39.2716 17.3536 41.2033 16.6223C43.1346 15.891 45.2253 15.5254 47.4754 15.5254C49.5754 15.5254 51.3853 16.0032 52.9037 16.9598C54.4225 17.9161 55.4999 19.2759 56.1381 21.0381C57.1874 19.3505 58.5851 18.0102 60.3289 17.0161C62.0731 16.0227 63.9943 15.5254 66.0947 15.5254C68.0448 15.5254 69.7694 15.8727 71.2702 16.5657C72.7695 17.2602 74.0266 18.1973 75.0387 19.3783C76.0516 20.5599 76.8107 21.9381 77.3173 23.5131C77.8236 25.0886 78.0763 26.7761 78.0763 28.5762ZM52.538 30.3762C50.8505 30.3762 49.2098 30.4239 47.616 30.5169C46.0215 30.611 44.6155 30.8262 43.3971 31.1641C42.1783 31.5013 41.2033 32.0079 40.4724 32.6829C39.7408 33.3579 39.3751 34.2771 39.3751 35.4393C39.3751 36.3393 39.5443 37.0897 39.8814 37.6893C40.2189 38.2897 40.6779 38.7679 41.2596 39.1238C41.8408 39.4804 42.5061 39.7339 43.2565 39.8831C44.0065 40.0332 44.794 40.1082 45.6194 40.1082C48.3192 40.1082 50.3348 39.396 51.6665 37.9706C52.9974 36.5459 53.6631 34.6517 53.6631 32.2895V30.3766H52.538V30.3762ZM74.195 27.3386C74.195 24.8268 73.4824 22.7639 72.0578 21.1509C70.6316 19.5388 68.6444 18.7321 66.0947 18.7321C64.9318 18.7321 63.8353 18.9669 62.804 19.4353C61.7719 19.9048 60.8637 20.5419 60.0758 21.3474C59.2882 22.1548 58.6503 23.0732 58.1632 24.1042C57.6753 25.1358 57.4124 26.2136 57.3757 27.3386H74.195Z" fill="#CFCFCF"/>
<path d="M102.433 22.2198C101.796 21.2073 100.867 20.3733 99.649 19.7166C98.4299 19.0611 97.1083 18.7322 95.6833 18.7322C94.145 18.7322 92.7582 19.0049 91.5206 19.5479C90.2835 20.092 89.2229 20.8417 88.3424 21.7979C87.4608 22.7542 86.7857 23.8793 86.3173 25.173C85.8478 26.4668 85.6142 27.8645 85.6142 29.3638C85.6142 30.8642 85.8478 32.2521 86.3173 33.5264C86.7857 34.8018 87.4514 35.9171 88.3147 36.8738C89.1764 37.8301 90.2268 38.5808 91.4644 39.1239C92.7019 39.6676 94.0891 39.9395 95.6274 39.9395C97.3149 39.9395 98.7392 39.6207 99.9022 38.9832C101.064 38.3461 102.02 37.5207 102.771 36.5081L105.639 38.6453C104.514 40.0333 103.136 41.1399 101.505 41.9642C99.8736 42.7888 97.9138 43.2021 95.6274 43.2021C93.4894 43.2021 91.5578 42.8545 89.8331 42.1614C88.108 41.4681 86.6357 40.502 85.4173 39.2645C84.1982 38.0266 83.252 36.5644 82.5766 34.8768C81.9016 33.1893 81.5645 31.3525 81.5645 29.3642C81.5645 27.377 81.9016 25.5394 82.5766 23.8519C83.252 22.1643 84.1982 20.7014 85.4173 19.4639C86.6357 18.2267 88.108 17.261 89.8331 16.5669C91.5578 15.8735 93.4894 15.5262 95.6274 15.5262C97.3896 15.5262 99.1795 15.9114 100.999 16.6798C102.818 17.4486 104.29 18.5833 105.415 20.0826L102.433 22.2198Z" fill="#CFCFCF"/>
<path d="M112.727 28.0704H112.896L125.047 16.2009H130.559L117.284 28.2388L131.91 42.5267H126.285L112.896 28.6884H112.727V42.5267H108.902V0H112.727V28.0704Z" fill="#CFCFCF"/>
<path d="M157.617 28.5762V29.4199C157.617 29.7207 157.597 30.0387 157.56 30.3762H135.735C135.772 31.6895 136.035 32.9267 136.523 34.0888C137.009 35.2517 137.684 36.2643 138.547 37.1264C139.41 37.9893 140.422 38.6734 141.585 39.18C142.747 39.6863 144.004 39.939 145.354 39.939C147.341 39.939 149.057 39.48 150.501 38.5608C151.945 37.6424 153.041 36.583 153.792 35.3826L156.66 37.6327C155.086 39.6206 153.35 41.0457 151.457 41.9075C149.563 42.7696 147.528 43.2012 145.354 43.2012C143.404 43.2012 141.594 42.854 139.925 42.1602C138.257 41.4672 136.822 40.5012 135.622 39.2636C134.422 38.0261 133.475 36.5635 132.781 34.876C132.087 33.1884 131.741 31.3516 131.741 29.3629C131.741 27.3761 132.078 25.5386 132.753 23.851C133.429 22.1635 134.366 20.7009 135.566 19.4634C136.766 18.2258 138.172 17.2606 139.785 16.566C141.397 15.873 143.141 15.5258 145.016 15.5258C147.078 15.5258 148.898 15.873 150.473 16.566C152.048 17.2606 153.36 18.1977 154.41 19.3786C155.46 20.5603 156.257 21.9385 156.801 23.5135C157.344 25.0886 157.617 26.7761 157.617 28.5762ZM153.735 27.3386C153.623 24.8628 152.825 22.8104 151.345 21.1791C149.863 19.5478 147.753 18.7321 145.016 18.7321C143.741 18.7321 142.56 18.9669 141.472 19.4353C140.384 19.9048 139.428 20.5419 138.604 21.3474C137.779 22.1548 137.122 23.0732 136.635 24.1041C136.147 25.1358 135.866 26.2136 135.791 27.3386H153.735Z" fill="#CFCFCF"/>
<path d="M166.954 0.000244141H163.129V42.5262H166.954V0.000244141Z" fill="#CFCFCF"/>
<path d="M188.386 22.4451C187.824 21.3579 186.97 20.4677 185.827 19.7731C184.682 19.0794 183.38 18.7325 181.917 18.7325C181.242 18.7325 180.567 18.8079 179.892 18.9571C179.217 19.1079 178.617 19.3513 178.092 19.6884C177.567 20.0263 177.145 20.4575 176.827 20.9826C176.507 21.508 176.349 22.1267 176.349 22.8389C176.349 24.0764 176.855 25.0237 177.867 25.6796C178.88 26.3359 180.473 26.889 182.649 27.339C185.761 27.9769 188.058 28.9054 189.54 30.1235C191.021 31.3426 191.762 32.9837 191.762 35.0455C191.762 36.5459 191.471 37.8116 190.89 38.8425C190.308 39.8745 189.549 40.7183 188.612 41.3738C187.674 42.0305 186.615 42.4989 185.433 42.7801C184.252 43.0614 183.061 43.202 181.862 43.202C179.873 43.202 177.942 42.7887 176.068 41.9645C174.192 41.1402 172.655 39.846 171.455 38.0827L174.493 35.8326C175.168 36.9959 176.161 37.9698 177.474 38.7581C178.786 39.5456 180.23 39.9386 181.805 39.9386C182.63 39.9386 183.418 39.8644 184.168 39.714C184.918 39.5644 185.574 39.3015 186.137 38.9261C186.699 38.5519 187.149 38.0737 187.487 37.4921C187.824 36.9108 187.993 36.1889 187.993 35.3264C187.993 33.9392 187.327 32.8986 185.997 32.204C184.665 31.511 182.743 30.8641 180.231 30.2637C179.443 30.0766 178.608 29.8418 177.728 29.5606C176.846 29.2793 176.031 28.8668 175.281 28.323C174.53 27.78 173.911 27.0949 173.425 26.2695C172.937 25.4452 172.693 24.4135 172.693 23.1756C172.693 21.8256 172.955 20.6724 173.481 19.7161C174.006 18.7599 174.709 17.972 175.59 17.3536C176.471 16.7344 177.475 16.2758 178.6 15.9754C179.725 15.6754 180.887 15.5254 182.087 15.5254C183.924 15.5254 185.706 15.9383 187.431 16.7629C189.156 17.5883 190.45 18.7509 191.313 20.2502L188.386 22.4451Z" fill="#CFCFCF"/>
<path d="M195.89 19.5407C195.89 18.9771 195.998 18.4457 196.214 17.9477C196.43 17.45 196.723 17.018 197.096 16.6516C197.467 16.286 197.903 15.9946 198.401 15.7786C198.898 15.5626 199.429 15.455 199.994 15.455C200.557 15.455 201.088 15.5626 201.587 15.7786C202.084 15.9946 202.519 16.286 202.891 16.6516C203.263 17.018 203.558 17.45 203.774 17.9477C203.99 18.4457 204.097 18.9771 204.097 19.5407C204.097 20.1051 203.99 20.6331 203.774 21.1248C203.558 21.6171 203.263 22.0462 202.891 22.4122C202.519 22.7786 202.084 23.0658 201.587 23.2766C201.088 23.4866 200.557 23.5916 199.994 23.5916C199.429 23.5916 198.898 23.4866 198.401 23.2766C197.903 23.0658 197.467 22.7786 197.096 22.4122C196.724 22.0462 196.43 21.6175 196.214 21.1248C195.998 20.6335 195.89 20.1051 195.89 19.5407ZM196.538 19.5407C196.538 20.0087 196.628 20.4531 196.808 20.8727C196.988 21.2931 197.234 21.6621 197.546 21.9798C197.858 22.2982 198.224 22.5468 198.644 22.7268C199.064 22.9064 199.514 22.9972 199.995 22.9972C200.474 22.9972 200.924 22.9068 201.345 22.7268C201.765 22.5468 202.131 22.2978 202.442 21.9798C202.754 21.6621 203.001 21.2931 203.181 20.8727C203.361 20.4531 203.451 20.0087 203.451 19.5407C203.451 19.0611 203.361 18.6111 203.181 18.191C203.001 17.771 202.754 17.405 202.442 17.0926C202.131 16.781 201.765 16.535 201.345 16.3546C200.925 16.175 200.475 16.085 199.995 16.085C199.515 16.085 199.064 16.175 198.644 16.3546C198.224 16.535 197.858 16.781 197.546 17.0926C197.234 17.405 196.988 17.771 196.808 18.191C196.628 18.6111 196.538 19.0611 196.538 19.5407ZM198.392 17.2186H200.012C200.228 17.2186 200.438 17.243 200.642 17.2906C200.846 17.3386 201.029 17.4166 201.19 17.5246C201.353 17.633 201.481 17.771 201.578 17.939C201.674 18.107 201.722 18.317 201.722 18.5691C201.722 18.9051 201.626 19.1781 201.434 19.3877C201.241 19.5981 200.984 19.7391 200.659 19.8107L201.902 21.8268H200.894L199.814 19.9007H199.22V21.8268H198.392V17.2186ZM199.886 19.2347C200.126 19.2347 200.354 19.1901 200.569 19.1001C200.785 19.0097 200.893 18.8271 200.893 18.5511C200.893 18.299 200.794 18.131 200.597 18.0467C200.399 17.963 200.191 17.9207 199.975 17.9207H199.219V19.2347H199.886Z" fill="#CFCFCF"/>
</svg>
